<svg width="61" height="60" viewBox="0 0 61 60" fill="none" xmlns="http://www.w3.org/2000/svg">
<path d="M51 21.5C63.0001 50.5 62.1583 59.2002 26.9042 58.0849C-13.2691 56.8141 5.15973 43.0139 8.84912 32C8.84912 17.9627 26.4633 9.49999 40.5 9.49999C46.2391 -3.63176 66.5 6.49997 51 21.5Z" fill="white"/>
<path d="M38.2472 30.4308C37.7798 30.5317 37.3703 30.784 37.0103 31.2012C36.5806 31.6991 36.3802 32.2239 36.3541 32.9237C36.3338 33.3812 36.3715 33.6672 36.4935 34.0339C36.7722 34.8716 37.4139 35.4973 38.1863 35.6824C38.3314 35.716 38.5347 35.7463 38.6392 35.7463C39.5626 35.7463 40.4511 35.0364 40.785 34.0339C40.907 33.6672 40.9447 33.3812 40.9244 32.9237C40.8983 32.2239 40.6979 31.6991 40.2682 31.2012C39.8181 30.6797 39.339 30.4342 38.7263 30.414C38.5434 30.4072 38.3285 30.414 38.2472 30.4308Z" fill="black"/>
<path d="M21.9143 30.4477C21.052 30.6731 20.4074 31.3594 20.1548 32.3316C20.0851 32.594 20.0764 32.6916 20.0764 33.0718C20.0764 33.4519 20.0851 33.5495 20.1548 33.8119C20.2535 34.1853 20.3958 34.4982 20.5903 34.764C20.9126 35.2013 21.2639 35.4705 21.7256 35.6319C21.9521 35.7127 22.0363 35.7228 22.3644 35.7228C22.6925 35.7228 22.7767 35.7127 23.0032 35.6319C23.793 35.3561 24.3824 34.6563 24.6031 33.7278C24.6844 33.3947 24.6786 32.7185 24.5915 32.372C24.3621 31.4468 23.7727 30.7605 22.9829 30.4948C22.7041 30.4039 22.1786 30.3804 21.9143 30.4477Z" fill="black"/>
<path d="M27.4748 41.6404C27.3238 41.7918 27.3209 42.2257 27.4632 42.7203C27.6781 43.4671 28.314 44.2409 29.0486 44.6413L29.2257 44.7388L29.1009 44.9171C29.0312 45.0147 28.9266 45.1964 28.8686 45.3242C28.5927 45.9096 28.4795 46.098 28.2443 46.3772C27.7478 46.9626 27.1554 47.2519 26.4586 47.2519C26.1392 47.2519 25.8633 47.1779 25.5875 47.0198C25.2942 46.8516 25.1171 46.6463 24.9487 46.2931C24.6612 45.6808 24.3041 45.3377 23.7669 45.1661C23.0265 44.9272 22.2018 45.3006 21.7721 46.0711C21.4208 46.7002 21.4004 47.5143 21.714 48.2343C22.1931 49.3344 22.9597 50.2124 23.9411 50.781C24.6293 51.1813 25.2826 51.3832 26.1217 51.4606C27.5503 51.5918 29.1125 51.0165 30.2652 49.9366L30.5004 49.7179L30.7153 49.9164C32.2484 51.3361 34.2664 51.8306 36.0812 51.2251C37.5098 50.7473 38.6276 49.7179 39.2606 48.2982C39.4378 47.9012 39.5103 47.5816 39.5103 47.2014C39.5103 46.606 39.3448 46.1484 38.9732 45.7178C38.5812 45.267 38.1631 45.0786 37.6085 45.1089C36.9464 45.1459 36.4035 45.553 36.0812 46.2527C35.7676 46.9357 35.2507 47.2519 34.4522 47.2519C34.0719 47.2519 33.8425 47.1981 33.5434 47.0366C32.9685 46.7271 32.591 46.2864 32.2077 45.4689C32.1177 45.2737 31.9871 45.0315 31.9174 44.9272L31.7896 44.7388L31.9406 44.6581C32.411 44.4058 32.9772 43.8439 33.2647 43.346C33.587 42.7909 33.7321 42.108 33.6015 41.7514C33.5057 41.4789 33.3227 41.5192 32.4545 42.0037C31.4209 42.579 30.843 42.7438 30.1694 42.6463C29.6787 42.5756 29.307 42.4276 28.4301 41.9431C27.7042 41.5428 27.6055 41.5125 27.4748 41.6404Z" fill="black"/>
<path d="M10.7645 0.0214348C6.81262 0.384773 3.4241 3.36548 2.15812 7.5876C1.65579 9.25626 1.49319 10.935 1.6645 12.6508C2.02745 16.2438 3.83931 19.6282 6.49613 21.6669C6.91716 21.9899 7.38754 22.3095 7.63725 22.4441C7.69533 22.4777 7.74469 22.5147 7.74469 22.5248C7.74469 22.5383 7.61403 22.8579 7.45723 23.2347C6.08672 26.5047 5.28532 30.0809 5.05884 33.9127L5.03851 34.2458L4.82945 34.4645C2.17844 37.2601 0.598869 40.5336 0.137193 44.1737C-0.118326 46.1956 -0.0137958 48.2747 0.424652 50.0173C0.845677 51.6793 1.55126 53.035 2.64012 54.2697C3.46475 55.2083 4.37648 55.9317 5.60181 56.6213C8.89743 58.475 13.6419 59.4607 20.9997 59.8173C25.8894 60.0528 34.6148 60.0629 39.67 59.8342C49.0429 59.4103 54.5017 57.9401 57.7015 54.9695C58.1139 54.586 58.773 53.8223 59.0808 53.3748C60.0506 51.9585 60.6574 50.2764 60.8926 48.3453C61.0436 47.114 61.0349 45.4857 60.8694 44.1568C60.6023 42.0004 59.8793 39.854 58.7788 37.9498C58.1661 36.8834 57.6348 36.15 56.6998 35.0734L55.9565 34.2122L55.9187 33.6772C55.6777 29.9497 54.8676 26.434 53.4739 23.0664C53.3461 22.7637 53.2474 22.5113 53.2503 22.508C53.2561 22.5046 53.4158 22.4071 53.6074 22.2893C55.6719 21.0344 57.4402 18.8645 58.4274 16.3682C59.1214 14.6088 59.435 12.8694 59.3914 11.0191C59.3711 10.2823 59.3276 9.81136 59.2085 9.12169C58.3665 4.23345 54.8879 0.610176 50.5006 0.0449829C50.0766 -0.00884247 48.9587 -0.00884247 48.5406 0.0483475C46.5952 0.304031 44.8908 1.12154 43.4012 2.52106C43.1079 2.79356 42.4314 3.56397 42.1555 3.9374C41.4122 4.93658 40.7879 6.14434 40.3524 7.41938C40.2217 7.79954 40.0272 8.48921 39.9575 8.80545L39.911 9.02749L39.4174 8.829C34.731 6.9383 29.2838 6.61197 24.3244 7.92738C23.3952 8.17297 22.2309 8.56322 21.4295 8.89628L21.1043 9.03085L21.0723 8.88955C20.8749 7.9913 20.4945 6.87774 20.1054 6.04005C19.8702 5.53878 19.3737 4.67417 19.0514 4.20654C18.5404 3.46978 17.7273 2.58834 17.0218 2.01306C15.7384 0.966785 14.1965 0.287209 12.5966 0.0685349C12.135 0.00461197 11.2 -0.0223007 10.7645 0.0214348ZM50.6051 4.32093C52.5999 4.74146 54.313 6.21835 55.1638 8.24699C56.0029 10.2521 55.9652 12.6205 55.0592 14.7366C54.615 15.7829 54.1707 16.4692 53.4071 17.3001C52.5302 18.2556 51.4907 18.915 50.2712 19.2918C49.7834 19.4432 49.5627 19.5811 49.281 19.9142C49.011 20.227 48.8919 20.4726 48.799 20.91C48.6742 21.4819 48.7642 22.0101 49.0952 22.6325C49.9082 24.1766 50.5093 25.5694 50.9564 26.9488C51.5459 28.7655 51.9756 30.8075 52.1818 32.7689C52.2543 33.4619 52.2863 33.8858 52.3298 34.7706C52.3937 36.1432 52.4866 36.3754 53.2938 37.1592C54.0517 37.896 54.824 38.8312 55.3612 39.6656C56.7521 41.8153 57.4344 44.2174 57.3589 46.68C57.3125 48.1434 57.025 49.2806 56.4414 50.2831C55.1144 52.5708 52.3269 53.9703 47.4518 54.8013C44.6904 55.2689 41.5893 55.5279 36.6357 55.6995C35.0242 55.7533 28.0991 55.7769 26.052 55.7332C20.962 55.6255 17.5502 55.3934 14.5392 54.9527C8.27024 54.041 5.08497 52.2714 4.04257 49.1191C3.84802 48.527 3.7493 48.0223 3.67671 47.2519C3.63316 46.7944 3.65929 45.442 3.72317 44.9306C3.93513 43.1711 4.50715 41.526 5.43631 39.9852C6.06059 38.9557 6.77778 38.0676 7.76792 37.0953C7.95375 36.9136 8.14248 36.7185 8.18314 36.668C8.3951 36.4023 8.59255 35.8976 8.62739 35.5444C8.6361 35.4435 8.65933 35.0498 8.67385 34.6697C8.70579 33.9329 8.76096 33.1861 8.83355 32.5334C8.9584 31.4198 9.23134 29.8454 9.44912 29.011L9.52461 28.7217L9.83239 28.7015C10.898 28.6275 11.2319 28.6006 11.8678 28.5266C20.7384 27.5039 27.9191 22.4642 29.8238 15.9208C30.2129 14.5852 30.393 13.0612 30.3029 11.8871C30.2652 11.3892 30.2652 11.3589 30.3117 11.3421C30.4539 11.3017 32.2077 11.406 33.1078 11.5103C35.5266 11.7895 38.0556 12.5868 40.2624 13.761C40.8257 14.0604 40.9883 14.1209 41.299 14.1411C42.0278 14.1849 42.7043 13.7374 43.0179 13.0006C43.1747 12.6339 43.195 12.5229 43.227 11.8602C43.2618 11.1873 43.3228 10.6524 43.4186 10.1646C43.7525 8.47239 44.5481 6.92148 45.6225 5.87856C46.5168 5.00723 47.6173 4.4454 48.7903 4.26037C49.1475 4.20318 50.2218 4.24018 50.6051 4.32093Z" fill="#FF9737"/>
</svg>
