<svg id="Capa_1" enable-background="new 0 0 512 512" height="512" viewBox="0 0 512 512" width="512" xmlns="http://www.w3.org/2000/svg"><g><g><path d="m280.273 23.581c-123.483-.36-224.62 95.584-232.59 216.967h-32.332c-11.799 0-19.174 12.773-13.274 22.992l36.01 62.371 36.01 62.37c5.9 10.219 20.649 10.219 26.549 0l36.01-62.37 36.01-62.371c5.9-10.219-1.475-22.992-13.275-22.992h-38.331c7.879-81.456 77.365-145.163 161.159-143.8 84.8 1.379 154.149 69.84 156.569 154.617 2.567 89.931-69.844 163.909-159.207 163.909-22.917 0-44.717-4.868-64.425-13.622-17.097-7.594-37.166-1.043-46.52 15.158-10.835 18.767-3.133 42.889 16.67 51.69 28.813 12.803 60.712 19.92 94.275 19.92 128.198 0 232.154-103.792 232.419-231.928.266-128.709-103.018-232.535-231.727-232.911z" fill="#bebbdc"/><path d="m280.273 23.581v73.159c.648.003 1.295-.002 1.945.008 84.8 1.379 154.149 69.84 156.569 154.617 2.56 89.698-69.471 163.517-158.513 163.899v73.146c127.878-.375 231.461-104.015 231.726-231.919.266-128.708-103.018-232.534-231.727-232.91z" fill="#6b64af"/></g><g><g><ellipse cx="280.273" cy="260.975" fill="#e2e9ee" rx="29.727" ry="29.993"/><path d="m280.273 230.981v59.986c16.442-.147 29.727-13.516 29.727-29.992 0-16.477-13.285-29.846-29.727-29.994z" fill="#bbd0d5"/></g><g><path d="m340 245.975h-17.58c-4.527-12.762-14.657-22.885-27.42-27.412v-18.263c0-8.192-6.57-14.839-14.727-14.986-8.284 0-15.273 6.702-15.273 14.986v18.255c-17.459 6.192-30 22.865-30 42.42 0 24.813 20.46 44.993 45.273 44.993 19.436-.117 35.984-12.618 42.147-29.993h17.58c8.284 0 15-6.716 15-15 0-8.285-6.716-15-15-15zm-60 30c-6.107 0-11.739-3.853-13.97-9.536-2.259-5.757-.65-12.472 3.938-16.606 4.891-4.408 12.299-5.079 17.908-1.609 5.09 3.149 7.715 8.977 6.913 14.887-.992 7.299-7.395 12.864-14.789 12.864z" fill="#edbe2c"/><path d="m340 245.975h-17.58c-4.527-12.762-14.657-22.885-27.42-27.412v-18.263c0-8.192-6.57-14.839-14.727-14.986v60.71c2.638.043 5.275.759 7.603 2.199 5.09 3.149 7.715 8.977 6.913 14.887-.979 7.21-7.238 12.716-14.515 12.852v30.006c19.436-.117 35.984-12.618 42.147-29.993h17.579c8.284 0 15-6.716 15-15 0-8.285-6.716-15-15-15z" fill="#e69022"/></g></g></g></svg>