<?xml version="1.0" encoding="iso-8859-1"?>
<!-- Generator: Adobe Illustrator 21.0.0, SVG Export Plug-In . SVG Version: 6.00 Build 0)  -->
<svg version="1.1" id="Capa_1" xmlns="http://www.w3.org/2000/svg" xmlns:xlink="http://www.w3.org/1999/xlink" x="0px" y="0px"
	 viewBox="0 0 512 512" style="enable-background:new 0 0 512 512;" xml:space="preserve">
<polygon style="fill:#E30000;" points="480.107,367.618 235.984,347.603 256,463.297 480.107,463.297 "/>
<polygon style="fill:#FF4A4A;" points="31.893,367.618 31.893,463.297 256,463.297 256,347.603 "/>
<path style="fill:#E1EBF0;" d="M16.894,48.703v270.142h30v-70.047h44.702v70.047h30v-70.047h44.702v70.047h30v-70.047H241v70.047h30
	v-70.047h44.703v70.047h30v-70.047h44.702v70.047h30v-70.047h44.704v70.047h30V48.703H16.894z M465.108,133.75h-44.704V78.703
	h44.704V133.75z M196.297,78.703H241v55.047h-44.703V78.703z M166.297,133.75h-44.702V78.703h44.702V133.75z M271,78.703h44.703
	v55.047H271V78.703z M345.703,78.703h44.702v55.047h-44.702V78.703z M91.595,78.703v55.047H46.894V78.703H91.595z M46.894,218.798
	V163.75h44.702v55.048H46.894z M121.595,218.798V163.75h44.702v55.048H121.595z M196.297,218.798V163.75H241v55.048H196.297z
	 M271,218.798V163.75h44.703v55.048H271z M345.703,218.798V163.75h44.702v55.048H345.703z M420.405,218.798V163.75h44.704v55.048
	H420.405z"/>
<polygon style="fill:#FF4A4A;" points="512,303.833 256,303.833 235.984,336.71 256,367.618 512,367.618 "/>
<rect y="303.83" style="fill:#FF8E8E;" width="256" height="63.785"/>
<g>
</g>
<g>
</g>
<g>
</g>
<g>
</g>
<g>
</g>
<g>
</g>
<g>
</g>
<g>
</g>
<g>
</g>
<g>
</g>
<g>
</g>
<g>
</g>
<g>
</g>
<g>
</g>
<g>
</g>
</svg>
